<svg id="Capa_1" data-name="Capa 1" xmlns="http://www.w3.org/2000/svg" viewBox="0 0 1080 1080"><defs><style>.cls-1{fill:#07081a;}.cls-2{fill:#ce0000;}.cls-3{fill:#fff;}</style></defs><rect class="cls-1" width="1080" height="1080"/><path class="cls-2" d="M542.79543,571.99286a23.70511,23.70511,0,0,0-12.39575,43.92071c-8.7556,9.46948-22.67425,7.85162-39.01963,2.40306-12.01514-3.99711-20.19974-2.284-24.744-.33313l5.496-34.71306c1.23711.07131,2.47436.11894,3.71162.11894a58.98115,58.98115,0,1,0-19.1292-3.18811l-8.589,54.08013a23.73308,23.73308,0,1,0,15.32232,3.71161c-.02381-.02382-.07144-.04763-.09511-.07145a1.10258,1.10258,0,0,1,.11893-.11893c2.68855-2.85512,11.15865-9.58827,28.09884-4.4968,19.2718,5.78168,43.06422,8.9936,54.65112-14.13271a23.714,23.714,0,0,0-3.42612-47.18026ZM451.171,666.21078a8.3282,8.3282,0,0,1-5.82917-14.27545v-.02381a8.382,8.382,0,0,1,5.82917-2.35543,8.2862,8.2862,0,0,1,7.99422,6.04322,8.0371,8.0371,0,0,1,.33313,2.28413A8.33651,8.33651,0,0,1,451.171,666.21078ZM453.52637,524.408a22.31731,22.31731,0,1,1,22.31731,22.3173A22.31865,22.31865,0,0,1,453.52637,524.408Zm89.93532,79.63316a8.32735,8.32735,0,1,1,8.32735-8.32735A8.32639,8.32639,0,0,1,543.46169,604.04118Z"/><path class="cls-3" d="M128.51564,533.75361l-36.342,50.32262a7.42033,7.42033,0,0,1-12.96424-1.28488,7.09446,7.09446,0,0,1,.69038-7.63275l36.95572-51.14736-33.5996-46.62131a7.1786,7.1786,0,0,1-1.34236-5.504,7.63156,7.63156,0,0,1,3.22186-5.04378A7.35429,7.35429,0,0,1,90.6777,465.538a7.70265,7.70265,0,0,1,4.89044,2.97254l32.9667,45.79668A16.05408,16.05408,0,0,1,128.51564,533.75361Z"/><path class="cls-3" d="M189.597,582.79135a7.42551,7.42551,0,0,1-12.98343,1.26568l-36.32282-50.30342a16.11167,16.11167,0,0,1,.01919-19.523L173.2,468.549a7.72881,7.72881,0,0,1,4.92872-3.01093,7.33419,7.33419,0,0,1,5.61909,1.38087,7.54412,7.54412,0,0,1,3.1452,4.967,7.321,7.321,0,0,1-1.36167,5.54242L151.9509,524.01124l37.0132,51.224A7.05681,7.05681,0,0,1,189.597,582.79135Z"/><path class="cls-3" d="M660.984,559.07376c-1.11234,1.34247-2.30136,2.64655-3.52877,3.874a59.30863,59.30863,0,0,1-18.73678,12.61893,58.85623,58.85623,0,0,1-64.53334-12.61893,59.38014,59.38014,0,0,1-12.59985-18.71759,58.80969,58.80969,0,0,1,0-45.79667,59.464,59.464,0,0,1,12.59985-18.73678,58.76088,58.76088,0,0,1,64.53334-12.59985,59.69219,59.69219,0,0,1,18.73678,12.59985c1.189,1.16982,2.32056,2.41642,3.37532,3.663a7.2353,7.2353,0,0,1-.46025,9.68478,7.19469,7.19469,0,0,1-10.5862-.34519c-.78624-.93981-1.64927-1.8795-2.55069-2.78081a44.45428,44.45428,0,0,0-75.8675,31.41331,43.64589,43.64589,0,0,0,13.02182,31.3941,44.40117,44.40117,0,0,0,62.84568.0192c.97809-.95889,1.89871-1.937,2.74242-2.93427a7.00124,7.00124,0,0,1,5.10137-2.49309,7.2056,7.2056,0,0,1,5.9068,11.756Z"/><path class="cls-3" d="M791.71163,501.50711a58.84393,58.84393,0,0,0-31.31744-31.31743,58.87426,58.87426,0,0,0-64.55254,12.59985,59.38092,59.38092,0,0,0-12.59985,18.71758,58.85717,58.85717,0,0,0,0,45.81587,59.16589,59.16589,0,0,0,12.59985,18.71759,59.00751,59.00751,0,0,0,41.63512,17.26A57.62878,57.62878,0,0,0,760.375,578.6595a59.84261,59.84261,0,0,0,18.73678-12.61893A59.16576,59.16576,0,0,0,791.71163,547.323a58.85717,58.85717,0,0,0,0-45.81587ZM768.89,555.838a44.40118,44.40118,0,0,1-62.84569-.0192,43.64589,43.64589,0,0,1-13.02182-31.3941,44.45428,44.45428,0,0,1,88.90853,0A43.66238,43.66238,0,0,1,768.89,555.838Z"/><path class="cls-3" d="M1001.5879,474.11163a7.60558,7.60558,0,0,1-7.84367,7.30675H933.89017a7.405,7.405,0,1,1,0-14.78615h59.85406A7.58675,7.58675,0,0,1,1001.5879,474.11163Z"/><path class="cls-3" d="M1001.01259,574.71859a7.57,7.57,0,0,1-7.82459,7.47928H934.0819a7.76493,7.76493,0,0,1-8.01632-7.47928V523.226c0-4.10408,3.50958-7.30675,8.01632-7.30675h50.13089a7.67155,7.67155,0,0,1,7.84379,7.4794,7.59347,7.59347,0,0,1-7.84379,7.30675h-42.3063v36.68721H993.188A7.59125,7.59125,0,0,1,1001.01259,574.71859Z"/><path class="cls-3" d="M284.86646,472.91926a7.6057,7.6057,0,0,1-7.84379,7.30675H217.16873a7.405,7.405,0,1,1,0-14.78616h59.85394A7.58679,7.58679,0,0,1,284.86646,472.91926Z"/><path class="cls-3" d="M284.31034,573.52621a7.58677,7.58677,0,0,1-7.84379,7.47929H217.36046a7.76493,7.76493,0,0,1-8.01632-7.47929V522.03366c0-4.10408,3.50957-7.30675,8.01632-7.30675h50.13088a7.67144,7.67144,0,0,1,7.84367,7.4794,7.59336,7.59336,0,0,1-7.84367,7.30675H225.18505v36.68721h51.2815A7.60854,7.60854,0,0,1,284.31034,573.52621Z"/><path class="cls-3" d="M903.12717,501.7181A35.41827,35.41827,0,0,1,880.459,534.97251c-.99717.36439-2.03285.69038-3.0876.978a54.20007,54.20007,0,0,1-10.52862,1.05488h-30.838V575.15a7.29731,7.29731,0,0,1-14.59431,0V529.60263a7.25352,7.25352,0,0,1,7.38342-7.26836h40.4653c10.54781,0,19.12024-9.24373,19.12024-20.61617s-8.57243-20.63537-19.12024-20.63537H828.64053a7.32658,7.32658,0,0,1,0-14.65189h40.61864C887.91917,466.43084,903.12717,482.25255,903.12717,501.7181Z"/><path class="cls-3" d="M897.89166,581.03759A7.38076,7.38076,0,0,1,893.826,582.265a6.96927,6.96927,0,0,1-1.5342-.17265,7.25986,7.25986,0,0,1-4.69859-3.24106l-15.38067-23.89551a7.419,7.419,0,1,1,12.4464-8.03551l15.38066,23.9339A7.436,7.436,0,0,1,897.89166,581.03759Z"/><path class="cls-3" d="M319.9849,487.61613v89.17693a7.59366,7.59366,0,0,1-7.4794,7.49848,7.42873,7.42873,0,0,1-7.345-7.49848V473.76968a7.40313,7.40313,0,0,1,5.12044-7.019,8.05792,8.05792,0,0,1,6.73144,1.09315,6.90466,6.90466,0,0,1,2.79989,5.52323Z"/><path class="cls-3" d="M397.52087,472.77251V575.96843a7.5267,7.5267,0,0,1-5.04378,6.98064,7.18,7.18,0,0,1-2.4355.44117,7.31152,7.31152,0,0,1-6.00267-3.14519l-56.99659-75.695a7.953,7.953,0,0,1,.748-10.50942,6.76992,6.76992,0,0,1,5.13964-2.07124,7.73271,7.73271,0,0,1,5.96428,3.20279L382.69644,553.492V473.02183a7.38327,7.38327,0,0,1,12.33134-5.67668A7.24017,7.24017,0,0,1,397.52087,472.77251Z"/></svg>